<svg width="38" height="44" viewBox="0 0 38 44" fill="none" xmlns="http://www.w3.org/2000/svg">
<path fill-rule="evenodd" clip-rule="evenodd" d="M19.4158 0.413385C19.0847 0.770527 19.0445 0.926554 19.12 1.56368C19.2064 2.29345 19.199 2.30864 18.3746 3.08722C17.3536 4.05112 16.9166 4.12936 17.0471 3.32475L17.1362 2.7761L16.6415 3.18484C16.3694 3.4095 14.509 5.21551 12.5073 7.19815C10.5055 9.18063 8.48439 11.1155 8.01589 11.4979C7.54739 11.8803 6.13602 13.2062 4.87967 14.4445L2.59526 16.6956V17.5161C2.59526 18.31 2.56723 18.3633 1.72425 19.1736C1.24506 19.6343 0.797474 19.9534 0.729484 19.8831C0.661339 19.8128 0.578481 19.5459 0.545338 19.2903L0.484782 18.8255L0.205077 19.4452C-0.142307 20.2153 -0.0357536 21.8377 0.429336 22.8591C0.59846 23.2305 0.736763 23.6479 0.736763 23.7869C0.736763 24.5637 3.26944 28.1418 4.66161 29.3315C5.17951 29.7741 6.12858 30.6268 6.77085 31.2264C7.41296 31.8259 8.53085 32.8471 9.25489 33.4959C13.3293 37.1458 16.1684 40.335 17.8145 43.1109L18.3419 44L18.7006 43.6181L19.0593 43.2361L18.6484 42.6432C18.4226 42.317 18.2376 41.9397 18.2376 41.8049C18.2376 41.67 18.5911 41.1858 19.0229 40.7287L19.8081 39.8976L20.3006 40.4786C20.5715 40.7983 20.8976 41.0578 21.0254 41.0555C21.1532 41.0532 24.4619 37.8494 28.3781 33.9362L35.4985 26.8213L35.1523 26.1085C34.8714 25.53 34.839 25.3316 34.9809 25.0546C35.2231 24.5814 36.2273 23.5512 36.4463 23.5512C36.5454 23.5512 36.811 23.8301 37.0365 24.171C37.4895 24.8557 37.6161 24.9088 37.9204 24.5417C38.1907 24.2162 37.8078 23.5363 36.2281 21.537C34.9024 19.8591 27.5769 12.4714 26.2911 11.5156C25.269 10.7556 23.0076 8.43675 22.2387 7.35975C21.541 6.38253 20.3565 4.05174 20.0091 2.9721C19.8095 2.35171 19.7686 1.8827 19.8437 1.07406C19.8985 0.483264 19.9109 0 19.8711 0C19.8315 0 19.6266 0.18593 19.4158 0.413385ZM19.6371 4.11883C19.8044 4.50944 19.9413 4.91709 19.9413 5.02493C19.9413 5.26788 18.3016 6.89492 18.0566 6.89492C17.8794 6.89492 17.4977 6.0274 17.475 5.57327C17.465 5.36921 19.089 3.40873 19.2682 3.40873C19.3037 3.40873 19.4697 3.72822 19.6371 4.11883ZM21.4519 7.94962L21.9309 8.61695L21.1298 9.50121C20.689 9.98757 20.2569 10.3845 20.1692 10.3833C19.8843 10.3794 19.1669 9.38237 19.1669 8.99021C19.1669 8.75144 20.5614 7.28228 20.788 7.28228C20.8897 7.28228 21.1885 7.58256 21.4519 7.94962ZM23.7357 10.501C23.8209 10.5644 24.0609 10.8089 24.2693 11.0443L24.6478 11.4724L23.8099 12.3213C23.349 12.7881 22.8896 13.1701 22.7891 13.1701C22.6189 13.1701 21.6449 12.1707 21.6449 11.9959C21.6449 11.9527 21.9681 11.5717 22.3631 11.1492C23.0504 10.4141 23.3981 10.2499 23.7357 10.501ZM26.61 13.3509C26.9457 13.6208 27.2204 13.9061 27.2204 13.9848C27.2204 14.1922 25.8169 15.8041 25.6363 15.8041C25.3995 15.8041 24.2778 14.8698 24.2778 14.6726C24.2778 14.5193 25.8055 12.8602 25.9464 12.8602C25.9757 12.8602 26.2743 13.081 26.61 13.3509ZM30.163 16.744C30.163 16.8854 29.8129 17.329 29.3848 17.7296L28.6064 18.4579L27.9909 17.9702C27.6523 17.7018 27.3762 17.3662 27.3771 17.2243C27.3782 17.0824 27.7372 16.5962 28.1749 16.144L28.9706 15.3219L29.5669 15.9043C29.8948 16.2246 30.163 16.6025 30.163 16.744ZM32.2851 18.6234C32.5661 18.8958 32.7959 19.1897 32.7959 19.2767C32.7959 19.5297 31.3599 20.9172 31.0982 20.9172C30.8592 20.9172 30.0081 19.9728 30.0081 19.7077C30.0081 19.4448 31.2716 18.1282 31.5239 18.1282C31.6617 18.1282 32.0043 18.351 32.2851 18.6234ZM3.3001 20.3699C3.42354 20.6654 3.52451 21.0159 3.52451 21.1487C3.52451 21.4 1.86038 23.2413 1.63318 23.2413C1.56178 23.2413 1.4354 23.0495 1.35239 22.8152C1.26922 22.581 1.12937 22.2646 1.04156 22.1124C0.860508 21.7985 0.948322 21.6398 1.90793 20.5464C2.65659 19.6933 2.99933 19.6498 3.3001 20.3699ZM34.9528 21.3399C35.2146 21.6575 35.4288 21.9943 35.4288 22.0884C35.4288 22.3413 34.0267 23.8611 33.7933 23.8611C33.6036 23.8611 32.641 22.8154 32.641 22.6092C32.641 22.4585 34.2133 20.7622 34.3529 20.7622C34.4212 20.7622 34.6911 21.0222 34.9528 21.3399ZM5.04477 24.1533C5.23077 24.4846 5.38301 24.8482 5.38301 24.9615C5.38301 25.2263 3.98604 26.65 3.72616 26.65C3.49369 26.65 2.69454 25.4953 2.77337 25.2734C2.89386 24.9342 4.23802 23.5748 4.46399 23.5634C4.59733 23.5566 4.85876 23.8222 5.04477 24.1533ZM7.64404 27.2027L8.14986 27.8157L7.38818 28.6274C6.96924 29.0738 6.54163 29.439 6.43802 29.439C6.20478 29.439 5.22845 28.5089 5.22706 28.2853C5.22566 28.0622 6.81933 26.498 6.99619 26.549C7.07425 26.5713 7.36573 26.8656 7.64404 27.2027ZM10.3229 29.6768C10.5873 29.978 10.8036 30.287 10.8036 30.3632C10.8036 30.4396 10.4637 30.8718 10.0483 31.3239C9.33806 32.0964 9.27084 32.1334 8.92547 31.9407C8.72336 31.8279 8.3958 31.5326 8.19756 31.2844L7.83732 30.8332L8.56492 29.9811C8.96512 29.5126 9.41627 29.1291 9.56743 29.1291C9.71859 29.1291 10.0585 29.3756 10.3229 29.6768ZM13.1655 32.586C13.3997 32.7924 13.5914 33.0327 13.5914 33.1201C13.5914 33.3772 12.1893 34.862 11.9468 34.862C11.6922 34.862 10.6488 33.9566 10.6488 33.7357C10.6488 33.655 11.0076 33.2162 11.4464 32.7605C12.3067 31.8668 12.3446 31.8629 13.1655 32.586ZM15.4821 35.1258C15.8052 35.4415 16.0691 35.7726 16.0686 35.8618C16.0675 36.0457 14.6072 37.496 14.4229 37.496C14.2536 37.496 13.2816 36.5344 13.2816 36.3669C13.2816 36.2059 14.6689 34.5521 14.8039 34.5521C14.8539 34.5521 15.159 34.8102 15.4821 35.1258ZM18.2036 38.025C18.4779 38.3158 18.7023 38.6046 18.7023 38.6667C18.7023 38.9387 17.2565 40.4399 16.9946 40.4399C16.6863 40.4399 15.9145 39.5476 15.9145 39.1911C15.9145 38.9404 17.2993 37.496 17.5395 37.496C17.6305 37.496 17.9293 37.734 18.2036 38.025Z" fill="#2A2C41"/>
</svg>
