<svg width="260" height="64" viewBox="0 0 260 64" fill="none" xmlns="http://www.w3.org/2000/svg">
<path fill-rule="evenodd" clip-rule="evenodd" d="M30.3179 13.7145C28.5657 14.1875 27.1681 15.5572 26.7123 17.2481C26.4082 18.3765 26.5178 19.9391 26.9691 20.9074C28.2145 23.5794 31.467 24.684 34.2323 23.3741C35.6438 22.7055 36.5875 21.5324 36.9554 19.9894C37.2123 18.9111 37.2101 18.4365 36.9431 17.388C36.3413 15.0256 34.3102 13.5236 31.7475 13.5461C31.2892 13.5501 30.6458 13.6259 30.3179 13.7145ZM54.327 13.6384C53.799 13.7751 52.9937 14.2842 52.7219 14.6533C52.5891 14.8339 52.4434 14.9815 52.3983 14.9815C52.3532 14.9815 52.333 14.7318 52.3533 14.4266L52.3904 13.8717H51.1298H49.8693V21.4179V28.964H51.1403H52.4113V25.7107V22.4575L52.9467 22.9756C53.8253 23.8258 55.0876 24.1285 56.4349 23.8119C58.7685 23.2636 60.0376 21.4626 60.0376 18.6991C60.0376 16.407 59.1556 14.7518 57.5157 13.966C56.876 13.6594 56.6434 13.6092 55.7287 13.5807C55.1503 13.5626 54.5195 13.5885 54.327 13.6384ZM65.3544 13.7145C62.6275 14.4507 61.0203 17.308 61.7502 20.1217C61.997 21.073 62.3155 21.6171 63.0678 22.3724C63.9047 23.2126 64.597 23.5743 65.8365 23.8189C66.6396 23.9774 66.9244 23.9875 67.6019 23.8817C68.7463 23.703 69.5083 23.3862 70.2568 22.778C72.2095 21.1908 72.7331 18.562 71.5624 16.2218C70.9762 15.05 69.4281 13.9016 68.0922 13.6471C67.2909 13.4946 66.0562 13.5249 65.3544 13.7145ZM88.0285 13.6488C86.6503 13.9432 85.04 15.1728 84.4176 16.4059C83.782 17.6655 83.7823 19.7333 84.4184 20.9936C85.0559 22.2569 86.4947 23.3245 87.9934 23.6466C88.8657 23.8339 90.6576 23.7166 91.5097 23.4164L92.2004 23.173V21.8516C92.2004 21.1248 92.1708 20.5301 92.1346 20.5301C92.0984 20.5301 91.9367 20.6225 91.7754 20.7355C91.1847 21.1492 90.4084 21.3624 89.4926 21.3624C88.298 21.3624 87.4812 20.9819 87.0333 20.2167C86.7624 19.7541 86.7296 19.5895 86.7302 18.6991C86.7309 17.8906 86.7762 17.6157 86.9682 17.2564C87.4028 16.4429 88.016 16.0739 89.1936 15.9175C89.7584 15.8424 90.8109 16.0671 91.6141 16.4342C91.8691 16.5507 92.1054 16.6461 92.1391 16.6461C92.1728 16.6461 92.2004 16.1028 92.2004 15.4389C92.2004 14.6053 92.1577 14.1981 92.0623 14.123C91.5192 13.6952 89.1276 13.4141 88.0285 13.6488ZM168.939 16.3147C167.286 17.7786 165.906 18.9765 165.872 18.9765C165.838 18.9765 165.81 17.8762 165.81 16.5314V14.0864L164.567 14.1178L163.323 14.1492L163.295 19.0875C163.279 21.8035 163.29 24.0899 163.32 24.1682C163.353 24.2545 164.558 23.2038 166.375 21.5049C168.025 19.9617 169.418 18.6824 169.471 18.6621C169.525 18.6416 169.568 19.8179 169.568 21.3012V23.9776L170.812 23.9462L172.055 23.9148L172.084 18.7823C172.099 15.9595 172.075 13.6505 172.028 13.6514C171.982 13.6522 170.592 14.8507 168.939 16.3147ZM15.3854 18.7545V23.6373H16.6564H17.9275V19.8643V16.0912H19.7497H21.5718L21.601 19.8365L21.6301 23.5819L22.8711 23.6133L24.1123 23.6445L24.1422 18.7581L24.1721 13.8716L19.7788 13.8717H15.3854V18.7545ZM39.3694 18.7545V23.6373H40.6404H41.9114L41.9139 21.5011L41.9163 19.3649L42.1333 19.6423C42.2526 19.7949 42.9332 20.7562 43.6459 21.7785L44.9416 23.6373H46.5765C47.4757 23.6373 48.2114 23.6148 48.2114 23.5873C48.2114 23.5598 47.2658 22.4003 46.1103 21.0107C44.9546 19.621 44.022 18.4474 44.0379 18.4024C44.0616 18.3352 45.3536 16.8616 47.644 14.2896L48.0161 13.8717L46.3729 13.8756L44.7298 13.8795L43.3483 15.6463L41.9667 17.4131L41.9363 15.6424L41.9059 13.8717H40.6376H39.3694V18.7545ZM74.4059 18.7642V23.6566L77.2519 23.6139C79.8688 23.5745 80.1474 23.5514 80.7131 23.3265C81.7745 22.9044 82.2532 22.1732 82.2532 20.974C82.2532 20.6039 82.176 20.1154 82.0817 19.8885C81.8735 19.3872 81.3405 18.8156 80.9168 18.6394L80.6041 18.5093L80.9858 18.148C81.4813 17.6787 81.7005 17.1337 81.7005 16.371C81.7005 15.5626 81.3578 14.8287 80.8105 14.465C80.0296 13.9462 79.5359 13.8717 76.8751 13.8717H74.4059V18.7642ZM94.4109 18.7582V23.6447L95.6544 23.6133L96.8978 23.5819L96.953 21.4854L97.0083 19.3887L98.4954 21.5131L99.9825 23.6373H101.631C103.185 23.6373 103.271 23.6262 103.129 23.4431C103.046 23.3363 102.157 22.2502 101.153 21.0295C100.149 19.8088 99.2612 18.7241 99.1797 18.6192C99.0048 18.394 98.8932 18.5402 101.351 15.7739L103.041 13.8717H101.404H99.7671L98.3891 15.6394C97.6311 16.6117 96.9933 17.3892 96.9715 17.3674C96.9497 17.3455 96.9389 16.5501 96.9473 15.5997L96.9628 13.8717H95.6869H94.4109V18.7582ZM190.911 14.0474C188.061 14.8169 186.481 17.9127 187.468 20.7937C188.03 22.4321 189.592 23.7735 191.316 24.0976C192.214 24.2664 193.696 24.1564 194.463 23.8639C195.811 23.3499 197.016 22.1028 197.494 20.7257C197.81 19.8152 197.779 18.0161 197.431 17.1454C196.808 15.583 195.544 14.453 193.939 14.0226C193.221 13.8301 191.669 13.8429 190.911 14.0474ZM212.198 13.9867C210.936 14.3046 209.626 15.3209 208.985 16.4796C207.878 18.4794 208.257 21.2435 209.851 22.8064C210.915 23.8491 212.177 24.2607 213.999 24.159C215.328 24.0849 216.147 23.7807 216.914 23.0755C217.452 22.5817 218.31 21.3081 218.31 21.0043C218.31 20.8984 218.004 20.863 217.09 20.863H215.869L215.459 21.2954C214.959 21.823 214.346 22.0111 213.316 21.9528C212.709 21.9184 212.485 21.8495 212.104 21.58C211.522 21.1693 211.104 20.3854 211.037 19.5784L210.988 18.9765H214.815H218.641V18.4418C218.641 17.2559 217.993 15.8577 217.065 15.0426C216.176 14.2619 215.301 13.9567 213.834 13.9152C213.165 13.8964 212.429 13.9286 212.198 13.9867ZM223.772 14.0666C222.563 14.5018 221.448 15.6493 220.955 16.9658C220.66 17.754 220.555 19.3373 220.731 20.3487C221.121 22.5983 222.637 24.0306 224.769 24.1642C226.129 24.2495 226.798 24.0195 227.609 23.1869L228.247 22.5326L228.279 23.2237L228.312 23.9148H229.528H230.744V19.032V14.1492H229.528H228.312L228.278 14.6923L228.244 15.2353L227.836 14.8404C227.129 14.1555 226.6 13.9531 225.399 13.9063C224.569 13.874 224.209 13.9094 223.772 14.0666ZM247.033 14.018C246.407 14.2537 245.857 14.6326 245.584 15.0171L245.333 15.3699L245.278 14.7595L245.223 14.1492H244.007H242.791V21.6953V29.2415L244.035 29.2729L245.278 29.3043V25.9739V22.6436L245.713 23.1171C245.952 23.3776 246.387 23.7135 246.68 23.8636C247.152 24.106 247.349 24.1362 248.428 24.1322C249.541 24.1279 249.7 24.1002 250.307 23.8037C251.537 23.2029 252.478 21.9655 252.779 20.5524C252.957 19.718 252.934 18.0286 252.735 17.2603C252.374 15.8683 251.566 14.8291 250.399 14.2558C249.844 13.9835 249.605 13.9369 248.596 13.9047C247.806 13.8795 247.305 13.9158 247.033 14.018ZM152.547 19.032V23.9776L153.772 23.9462L154.997 23.9148L154.984 21.7785C154.976 20.6036 155.01 19.6425 155.058 19.6428C155.105 19.643 155.617 20.3265 156.195 21.1618C156.772 21.9969 157.456 22.9706 157.714 23.3253L158.184 23.9703H159.713C160.554 23.9703 161.27 23.9417 161.305 23.9069C161.34 23.872 160.447 22.7386 159.322 21.388C158.197 20.0375 157.252 18.8697 157.223 18.7931C157.194 18.7165 158.044 17.6712 159.114 16.4703C160.183 15.2694 161.058 14.2434 161.058 14.1903C161.058 14.1372 160.369 14.0937 159.528 14.0937H157.998L156.598 15.8692C155.829 16.8458 155.147 17.6448 155.084 17.6448C155.009 17.6448 154.975 17.0431 154.985 15.897L155.001 14.1492L153.774 14.1178L152.547 14.0864V19.032ZM175.646 14.1492C175.645 14.1797 175.644 16.3895 175.643 19.0597L175.642 23.9148L176.858 23.9462L178.074 23.9775L178.104 21.9487L178.134 19.9198L180.038 19.8893L181.942 19.8591L181.972 21.8869L182.002 23.9148H183.218H184.434V19.032V14.1492L183.19 14.1178L181.947 14.0864V15.8656C181.947 16.971 181.905 17.6486 181.836 17.6549C181.776 17.6605 181.577 17.665 181.394 17.665C181.212 17.665 180.391 17.6605 179.571 17.6549L178.079 17.6448V15.8692V14.0937H176.863C176.194 14.0937 175.646 14.1187 175.646 14.1492ZM199.189 15.1984V16.3061L200.488 16.3373L201.786 16.3686L201.842 20.1417L201.897 23.9148H203.113H204.328L204.357 20.114L204.386 16.3131H205.715H207.044L207.013 15.2312L206.981 14.1492L203.085 14.12L199.189 14.0908V15.1984ZM232.899 15.1984V16.3061L234.198 16.3373L235.496 16.3686L235.552 20.1417L235.607 23.9148H236.823H238.039L238.068 20.114L238.097 16.3131H239.426H240.754L240.723 15.2312L240.691 14.1492L236.795 14.12L232.899 14.0908V15.1984ZM33.1474 16.1261C33.9955 16.6636 34.3349 17.4366 34.326 18.81C34.3144 20.6058 33.3935 21.635 31.7984 21.635C30.9734 21.635 30.3507 21.3651 29.895 20.8101C29.424 20.2362 29.2753 19.6129 29.331 18.4443C29.3697 17.631 29.4287 17.3755 29.6753 16.9531C29.9702 16.4477 30.4716 16.0509 31.0539 15.8621C31.6092 15.682 32.6548 15.8139 33.1474 16.1261ZM56.2663 16.1245C56.9366 16.5699 57.2111 17.2475 57.2576 18.5717C57.3133 20.1608 56.946 21.0035 56.0121 21.4294C55.4912 21.6669 54.4755 21.7044 53.8293 21.5101C53.2829 21.3458 52.6832 20.6879 52.518 20.0717C52.3431 19.4198 52.3722 18.1696 52.5789 17.4559C52.7788 16.7652 53.4125 16.0522 53.982 15.8769C54.6294 15.6776 55.7817 15.8026 56.2663 16.1245ZM68.1648 16.0934C69.7662 17.0872 69.8519 20.1904 68.3076 21.2649C67.8882 21.5567 67.7658 21.5843 66.8915 21.5843C66.0345 21.5843 65.887 21.5527 65.479 21.2816C65.2284 21.1151 64.8858 20.7431 64.7176 20.4549C64.4583 20.0106 64.4049 19.7767 64.3676 18.9201C64.3303 18.0646 64.3605 17.8235 64.5643 17.348C64.8532 16.6735 65.3818 16.1322 65.9645 15.9145C66.5733 15.6869 67.6509 15.7746 68.1648 16.0934ZM78.7993 16.09C79.0226 16.2267 79.1633 16.4049 79.1712 16.5612C79.2165 17.4566 78.9818 17.6448 77.8199 17.6448H76.948V16.757V15.8692L77.694 15.8697C78.2427 15.8699 78.5351 15.9283 78.7993 16.09ZM214.407 16.0358C214.809 16.1556 215.095 16.3423 215.422 16.6992C215.673 16.9724 215.878 17.247 215.878 17.3095C215.878 17.3831 215.065 17.4229 213.557 17.4229C212.05 17.4229 211.236 17.3831 211.236 17.3095C211.236 17.247 211.439 16.9753 211.686 16.7056C212.399 15.9289 213.303 15.7066 214.407 16.0358ZM193.902 16.4807C194.216 16.6988 194.486 17.0218 194.685 17.4158C194.951 17.9428 194.989 18.1445 194.989 19.0392C194.989 19.9419 194.953 20.1299 194.68 20.6543C194.248 21.4854 193.674 21.8685 192.752 21.9429C191.892 22.0123 191.359 21.857 190.817 21.3792C189.61 20.3147 189.577 17.7983 190.757 16.686C191.266 16.2057 191.65 16.0859 192.576 16.118C193.312 16.1436 193.487 16.1915 193.902 16.4807ZM227.234 16.4474C227.537 16.6492 227.78 16.9448 227.982 17.3609C228.262 17.9356 228.279 18.051 228.235 19.1144C228.153 21.0769 227.569 21.8376 226.062 21.9459C225.075 22.0168 224.608 21.853 224.079 21.2502C223.549 20.6451 223.393 20.1336 223.399 19.0191C223.406 17.6367 223.83 16.7864 224.743 16.3215C225.432 15.97 226.604 16.0294 227.234 16.4474ZM249.185 16.4241C249.441 16.5975 249.706 16.9296 249.893 17.3095C250.153 17.8397 250.192 18.0526 250.194 18.974C250.199 21.1275 249.354 22.0598 247.494 21.9542C246.028 21.8711 245.278 20.9552 245.278 19.2498C245.278 17.7123 245.736 16.7245 246.647 16.2978C247.324 15.9806 248.626 16.0454 249.185 16.4241ZM79.3098 19.6286C79.679 19.977 79.7631 20.4122 79.5569 20.9077C79.3439 21.4197 79.049 21.5289 77.8802 21.5289H76.948V20.4084V19.288L77.9892 19.3264C78.904 19.3602 79.0644 19.3968 79.3098 19.6286Z" fill="#2A2C41"/>
<path d="M26.2462 30.9707C25.6768 30.5446 23.2012 29.7545 21.3538 29.4095C20.0693 29.1695 15.695 29.1042 14.3354 29.3045C10.8134 29.8236 7.7846 31.3455 5.2644 33.8627C1.72781 37.3951 0.132935 41.2929 0.132935 46.4042C0.132935 50.953 1.39569 54.5592 4.13749 57.8401C6.60065 60.7877 10.1112 62.7934 13.8381 63.3824C17.8415 64.0153 22.6687 63.4426 25.7374 61.9709L26.438 61.6348V58.1533C26.438 56.2384 26.4182 54.6716 26.394 54.6716C26.3698 54.6716 26.0329 54.8651 25.6454 55.1014C22.7687 56.8561 19.9832 57.7094 17.1538 57.7025C14.1218 57.6951 11.8107 56.7698 9.85916 54.7819C8.02356 52.9123 7.02297 50.6236 6.75583 47.6832C6.48471 44.7007 7.143 41.8846 8.60503 39.773C10.8576 36.5194 14.2461 34.7468 17.817 34.9541C20.6471 35.1184 23.261 35.959 25.7195 37.4954L26.3827 37.9097L26.412 34.5133C26.4389 31.3768 26.4262 31.1056 26.2462 30.9707Z" fill="#FF724C"/>
<path d="M53.8694 62.5738C53.9197 62.5233 53.9272 57.0044 53.8862 50.3094C53.8452 43.6144 53.7827 38.1398 53.7471 38.1437C53.7115 38.1475 53.5084 38.3156 53.2956 38.5172C53.0828 38.7189 51.0934 40.4949 48.8746 42.464L43.1825 47.5156C39.6295 50.6692 38.9912 51.2156 38.9155 51.1687C38.8724 51.1419 38.845 48.4735 38.8546 45.2387L38.872 39.3575H35.8602L32.8484 39.3574V51.6199C32.8484 58.3643 32.8735 63.8824 32.9042 63.8824C32.9564 63.8824 35.4756 61.5523 44.0923 53.5342C46.0436 51.7184 47.6689 50.2327 47.7038 50.2327C47.7388 50.2327 47.7803 53.0168 47.7961 56.4195L47.8246 62.6062L50.8014 62.6358C52.4387 62.652 53.8193 62.6242 53.8694 62.5738Z" fill="#FF724C"/>
<path d="M130.116 48.1652C129.663 47.3797 128.179 44.8145 126.817 42.4646C125.455 40.1148 124.322 38.1725 124.3 38.1486C124.277 38.1246 124.233 38.1745 124.203 38.2595C124.107 38.5251 122.412 45.4641 121.048 51.176C120.873 51.9084 120.555 53.2318 120.343 54.1168C120.13 55.0018 119.825 56.2752 119.666 56.9466C119.506 57.618 119.184 58.9663 118.95 59.9428C118.715 60.9194 118.489 61.9057 118.447 62.1346L118.37 62.5507H121.408H124.445L124.569 62.0791C124.637 61.8196 124.919 60.6087 125.194 59.388C125.47 58.1673 125.795 56.744 125.917 56.2253C126.038 55.7065 126.255 54.7668 126.4 54.1372C126.646 53.0627 126.741 52.7943 126.834 52.9053C126.855 52.9308 128.255 55.3387 129.945 58.2564C131.634 61.1741 133.053 63.5212 133.096 63.4721C133.174 63.3847 138.855 53.5422 139.131 53.016L139.272 52.7475L139.382 53.016C139.443 53.1636 139.773 54.5079 140.116 56.0033C140.811 59.0353 141.193 60.6866 141.458 61.8016L141.635 62.5507H144.66C146.323 62.5507 147.682 62.5132 147.68 62.4675C147.678 62.4218 147.609 62.1096 147.526 61.7739C147.336 60.9997 144.611 49.4968 144.424 48.6791C144.269 48.0032 143.482 44.7309 142.875 42.2427C142.659 41.3577 142.351 40.0718 142.191 39.3851C142.03 38.6985 141.87 38.1367 141.835 38.1368C141.8 38.1368 141.269 38.9982 140.655 40.0511C139.228 42.4997 134.526 50.6283 133.739 52.0083C133.409 52.5881 133.091 53.0575 133.034 53.0515C132.976 53.0454 132.481 52.2649 131.934 51.3169C131.387 50.369 130.569 48.9508 130.116 48.1652Z" fill="#FF724C"/>
<path d="M234.336 62.5507V50.3437C234.336 43.6298 234.299 38.1371 234.253 38.1377C234.208 38.1381 233.996 38.3014 233.783 38.5002C233.571 38.6992 232.476 39.6802 231.352 40.6803C230.227 41.6805 229.133 42.6554 228.92 42.8468C228.707 43.0382 227.315 44.2733 225.826 45.5913C224.336 46.9093 222.297 48.717 221.294 49.6083C220.291 50.4995 219.431 51.2294 219.383 51.2302C219.335 51.2309 219.31 48.5598 219.328 45.2944L219.36 39.3573L216.348 39.3574H213.336V51.6434V63.9295L213.861 63.427C214.462 62.8521 215.03 62.3233 217.426 60.1109C218.368 59.2406 220.6 57.1739 222.386 55.5181C224.173 53.8623 226.212 51.9777 226.918 51.3299L228.202 50.152L228.23 56.3514L228.259 62.5507H231.297H234.336Z" fill="#FF724C"/>
<path d="M168.798 41.4582C167.592 39.7953 165.714 38.774 163.324 38.4812C159.313 37.9898 155.787 39.6301 153.288 43.1501C151.793 45.2553 150.997 47.9646 151.002 50.9373C151.012 57.8091 154.521 62.5917 160.104 63.3464C161.428 63.5254 163.695 63.4049 164.65 63.1049C166.433 62.5445 167.869 61.4804 168.858 59.9858C169.136 59.5654 169.398 59.2214 169.439 59.2214C169.479 59.2213 169.497 59.9704 169.477 60.886L169.442 62.5507H172.417H175.392L175.472 50.9931C175.538 41.4749 175.526 39.419 175.406 39.3416C175.326 39.29 173.967 39.26 172.387 39.2748L169.513 39.3019L169.482 40.7168C169.465 41.4951 169.414 42.1317 169.369 42.1317C169.324 42.1317 169.067 41.8286 168.798 41.4582Z" fill="#FF724C"/>
<path d="M110.819 41.0249C109.433 39.9196 108.091 39.2714 106.182 38.7857C105.028 38.492 101.508 38.396 100.324 38.6259C95.9788 39.469 92.3482 42.5582 90.8882 46.6544C90.1927 48.6061 90.0075 51.4927 90.4351 53.7175C91.3257 58.3513 94.5389 61.8542 98.9978 63.0526C99.9455 63.3073 100.397 63.358 102.165 63.4084C105.029 63.49 106.682 63.2211 108.538 62.3718C110.682 61.3906 112.524 59.4323 113.758 56.8222C113.992 56.3266 114.216 55.7897 114.257 55.6292L114.33 55.3375H111.19H108.05L107.82 55.8127C107.036 57.4326 105.335 58.2649 102.811 58.2636C101.817 58.2632 101.367 58.2099 100.749 58.0192C98.3548 57.2817 96.892 55.1813 96.6592 52.147L96.5889 51.2315H105.85H115.112L115.049 49.983C114.86 46.2563 113.34 43.0363 110.819 41.0249Z" fill="#FF724C"/>
<path d="M68.2718 48.0688L68.2428 43.7131L68.214 39.3574L65.2034 39.3575H62.1929V50.9819V62.6062L65.2035 62.6357L68.2141 62.6652L68.2429 57.9748L68.2718 53.2845H72.8033H77.3348L77.3901 57.9453L77.4454 62.6062H80.4848H83.5243L83.5599 60.3312C83.5794 59.08 83.561 53.8491 83.5187 48.7068L83.4421 39.3574H80.4407H77.4392L77.4059 43.6576C77.3877 46.0227 77.3363 47.9958 77.2917 48.0423C77.2472 48.0887 75.1995 48.1137 72.7412 48.0978L68.2718 48.0688Z" fill="#FF724C"/>
<path d="M189.85 48.0688V43.7131V39.3574H186.764H183.679L183.753 45.0352C183.793 48.1581 183.826 53.3766 183.826 56.6318V62.5507H186.81H189.794V57.8898V53.229H194.436H199.078V57.8898V62.5507H202.063H205.047V53.1359C205.047 47.9577 205.08 42.7392 205.12 41.5392L205.192 39.3574H202.064H198.936L198.98 43.7131L199.023 48.0688H194.436H189.85Z" fill="#FF724C"/>
<path d="M259.867 62.5507V50.954V39.3574L254.313 39.374C251.259 39.3831 248.61 39.4099 248.428 39.4333C247.732 39.5229 246.169 39.9216 245.598 40.1553C244.091 40.7718 242.604 42.0756 241.971 43.3355C241.373 44.5241 241.246 45.1447 241.252 46.8481C241.257 48.243 241.288 48.4847 241.551 49.2148C242.212 51.0482 243.274 52.1948 245.139 53.0903C245.691 53.3556 245.914 53.5175 245.857 53.6135C245.747 53.8007 244.089 56.2387 242.703 58.2506C242.083 59.1509 241.163 60.4867 240.659 61.2191L239.743 62.5507L243.146 62.5454L246.549 62.5401L248.815 58.8675C250.061 56.8476 251.223 54.9756 251.397 54.7075L251.714 54.22L252.779 54.2516L253.844 54.2832V58.417V62.5507H256.856H259.867Z" fill="#FF724C"/>
<path d="M253.852 47.0907C253.852 45.5859 253.873 44.2937 253.898 44.2191C253.959 44.0404 250.449 43.9916 249.622 44.1594C247.902 44.5086 247.089 45.5099 247.3 47.021C247.582 49.0461 248.521 49.6285 251.691 49.7464L253.852 49.8267V47.0907Z" fill="#F4F4F8"/>
<path d="M169.149 47.9093C168.691 46.1345 167.657 44.7883 166.243 44.1254C165.566 43.8078 165.266 43.7567 163.899 43.7272C161.763 43.6808 160.857 44.024 159.59 45.3606C158.151 46.8788 157.739 48.1179 157.742 50.91C157.745 53.0333 157.928 53.9968 158.547 55.1452C159.139 56.2426 159.876 56.9818 160.87 57.4754C161.759 57.9166 161.825 57.9277 163.563 57.9277H165.345L166.385 57.4086C167.985 56.6104 168.744 55.4313 169.142 53.128C169.413 51.5555 169.416 48.9457 169.149 47.9093Z" fill="#F4F4F8"/>
<path d="M107.842 46.4286C107.095 45.2505 105.441 43.9837 104.179 43.6236C101.955 42.9893 99.8888 43.6564 98.2611 45.5349C96.6015 47.4502 96.4424 47.3851 102.792 47.3851H108.448L107.842 46.4286Z" fill="#F4F4F8"/>
<path fill-rule="evenodd" clip-rule="evenodd" d="M127.954 0.329463C127.691 0.614099 127.659 0.738451 127.719 1.24623C127.788 1.82785 127.782 1.83995 127.127 2.46047C126.317 3.22868 125.969 3.29104 126.073 2.64978L126.144 2.21251L125.751 2.53827C125.535 2.71733 124.058 4.15669 122.468 5.73682C120.879 7.31684 119.274 8.85894 118.902 9.1637C118.53 9.46847 117.409 10.5251 116.412 11.5121L114.598 13.3062V13.9601C114.598 14.5928 114.576 14.6353 113.906 15.2811C113.526 15.6482 113.17 15.9026 113.116 15.8466C113.062 15.7905 112.996 15.5779 112.97 15.3741L112.922 15.0036L112.7 15.4976C112.424 16.1113 112.509 17.4043 112.878 18.2184C113.012 18.5144 113.122 18.847 113.122 18.9578C113.122 19.577 115.133 22.4286 116.239 23.3768C116.65 23.7296 117.403 24.4091 117.913 24.887C118.423 25.3648 119.311 26.1787 119.886 26.6957C123.121 29.6047 125.375 32.1464 126.683 34.3588L127.101 35.0674L127.386 34.763L127.671 34.4586L127.345 33.986C127.165 33.7261 127.018 33.4254 127.018 33.318C127.018 33.2104 127.299 32.8245 127.642 32.4602L128.265 31.7978L128.657 32.2609C128.872 32.5157 129.131 32.7225 129.232 32.7206C129.334 32.7188 131.961 30.1655 135.07 27.0467L140.724 21.3762L140.449 20.8081C140.226 20.347 140.201 20.189 140.313 19.9682C140.506 19.591 141.303 18.77 141.477 18.77C141.556 18.77 141.766 18.9923 141.945 19.2639C142.305 19.8096 142.406 19.852 142.647 19.5594C142.862 19.3 142.558 18.7581 141.304 17.1647C140.251 15.8274 134.434 9.93957 133.413 9.17778C132.602 8.57208 130.806 6.72398 130.195 5.86562C129.641 5.08679 128.701 3.22918 128.425 2.36872C128.267 1.87428 128.234 1.50049 128.294 0.85601C128.337 0.385155 128.347 0 128.316 0C128.284 0 128.121 0.148184 127.954 0.329463ZM128.13 3.28265C128.263 3.59396 128.371 3.91885 128.371 4.0048C128.371 4.19843 127.069 5.49516 126.875 5.49516C126.734 5.49516 126.431 4.80376 126.413 4.44182C126.405 4.27919 127.694 2.71671 127.837 2.71671C127.865 2.71671 127.997 2.97134 128.13 3.28265ZM129.571 6.33573L129.951 6.86759L129.315 7.57233C128.965 7.95995 128.622 8.27633 128.552 8.27534C128.326 8.27225 127.756 7.47762 127.756 7.16507C127.756 6.97478 128.864 5.80388 129.044 5.80388C129.124 5.80388 129.362 6.04319 129.571 6.33573ZM131.384 8.36919C131.452 8.4197 131.642 8.61456 131.808 8.80213L132.108 9.14333L131.443 9.81991C131.077 10.192 130.712 10.4964 130.633 10.4964C130.497 10.4964 129.724 9.69988 129.724 9.56059C129.724 9.52614 129.981 9.22248 130.294 8.88574C130.84 8.29991 131.116 8.16902 131.384 8.36919ZM133.666 10.6405C133.933 10.8556 134.151 11.0829 134.151 11.1457C134.151 11.311 133.037 12.5956 132.893 12.5956C132.705 12.5956 131.815 11.851 131.815 11.6938C131.815 11.5717 133.028 10.2494 133.14 10.2494C133.163 10.2494 133.4 10.4254 133.666 10.6405ZM136.488 13.3447C136.488 13.4575 136.21 13.811 135.87 14.1302L135.252 14.7107L134.763 14.322C134.494 14.1081 134.275 13.8406 134.276 13.7275C134.276 13.6144 134.561 13.2269 134.909 12.8666L135.541 12.2114L136.014 12.6755C136.275 12.9308 136.488 13.232 136.488 13.3447ZM138.173 14.8426C138.396 15.0597 138.578 15.294 138.578 15.3632C138.578 15.5649 137.438 16.6707 137.23 16.6707C137.04 16.6707 136.365 15.9181 136.365 15.7068C136.365 15.4972 137.368 14.4479 137.568 14.4479C137.678 14.4479 137.95 14.6255 138.173 14.8426ZM115.158 16.2346C115.256 16.47 115.336 16.7494 115.336 16.8552C115.336 17.0555 114.014 18.523 113.834 18.523C113.777 18.523 113.677 18.3701 113.611 18.1834C113.545 17.9967 113.434 17.7446 113.364 17.6233C113.22 17.3731 113.29 17.2467 114.052 16.3752C114.647 15.6953 114.919 15.6606 115.158 16.2346ZM140.291 17.0076C140.499 17.2607 140.669 17.5292 140.669 17.6041C140.669 17.8057 139.556 19.017 139.37 19.017C139.22 19.017 138.455 18.1835 138.455 18.0192C138.455 17.8992 139.704 16.5472 139.815 16.5472C139.869 16.5472 140.083 16.7544 140.291 17.0076ZM116.543 19.2499C116.691 19.5139 116.811 19.8037 116.811 19.894C116.811 20.105 115.702 21.2397 115.496 21.2397C115.311 21.2397 114.677 20.3194 114.739 20.1425C114.835 19.8722 115.902 18.7888 116.082 18.7797C116.188 18.7743 116.395 18.986 116.543 19.2499ZM118.607 21.6802L119.008 22.1687L118.404 22.8157C118.071 23.1714 117.731 23.4625 117.649 23.4625C117.464 23.4625 116.689 22.7212 116.688 22.543C116.686 22.3652 117.952 21.1186 118.092 21.1592C118.154 21.177 118.386 21.4115 118.607 21.6802ZM120.734 23.652C120.944 23.8921 121.116 24.1383 121.116 24.1991C121.116 24.26 120.846 24.6044 120.516 24.9647C119.952 25.5804 119.899 25.6099 119.624 25.4563C119.464 25.3664 119.204 25.131 119.046 24.9332L118.76 24.5736L119.338 23.8946C119.656 23.5211 120.014 23.2155 120.134 23.2155C120.254 23.2155 120.524 23.412 120.734 23.652ZM122.991 25.9706C123.177 26.1351 123.329 26.3266 123.329 26.3963C123.329 26.6011 122.216 27.7845 122.023 27.7845C121.821 27.7845 120.993 27.063 120.993 26.8869C120.993 26.8226 121.278 26.4728 121.626 26.1097C122.309 25.3974 122.339 25.3943 122.991 25.9706ZM124.83 27.9948C125.087 28.2464 125.297 28.5102 125.296 28.5814C125.295 28.728 124.136 29.8838 123.989 29.8838C123.855 29.8838 123.083 29.1174 123.083 28.9839C123.083 28.8556 124.185 27.5375 124.292 27.5375C124.332 27.5375 124.574 27.7433 124.83 27.9948ZM126.991 30.3054C127.209 30.5372 127.387 30.7673 127.387 30.8169C127.387 31.0336 126.239 32.23 126.031 32.23C125.787 32.23 125.174 31.5189 125.174 31.2347C125.174 31.0349 126.273 29.8838 126.464 29.8838C126.536 29.8838 126.774 30.0735 126.991 30.3054Z" fill="#2A2C41"/>
</svg>
